<svg width="93" height="93" viewBox="0 0 93 93" fill="none" xmlns="http://www.w3.org/2000/svg">
<rect width="93" height="93" rx="46.5" fill="black"/>
<path d="M65.7333 61.6631L57.2333 49.0631C57.0333 48.7631 56.7333 48.4631 56.4333 48.2631L55.7333 47.7631C54.9333 47.1631 54.9333 46.0631 55.7333 45.4631L56.3333 45.0631C56.6333 44.8631 56.9333 44.5631 57.1333 44.2631L65.8333 31.8631C66.5333 30.7631 66.6333 29.3631 65.8333 28.3631C64.8333 27.0631 63.0333 26.7631 61.7333 27.6631L49.1333 36.1631C48.8333 36.3631 48.5333 36.6631 48.3333 36.9631L47.8333 37.6631C47.2333 38.4631 46.1333 38.4631 45.5333 37.6631L45.1333 37.0631C44.9333 36.7631 44.6333 36.4631 44.3333 36.2631L31.9333 27.5631C30.8333 26.8631 29.4333 26.7631 28.4333 27.5631C27.1333 28.5631 26.8333 30.3631 27.7333 31.6631L36.2333 44.2631C36.4333 44.5631 36.7333 44.8631 37.0333 45.0631L37.7333 45.5631C38.5333 46.1631 38.5333 47.2631 37.7333 47.8631L37.1333 48.2631C36.8333 48.4631 36.5333 48.7631 36.3333 49.0631L27.5333 61.5631C26.7333 62.7631 26.8333 64.3631 27.8333 65.3631C28.8333 66.3631 30.4333 66.5631 31.6333 65.7631L44.2333 57.2631C44.5333 57.0631 44.8333 56.7631 45.0333 56.4631L45.5333 55.7631C46.1333 54.9631 47.2333 54.9631 47.8333 55.7631L48.2333 56.3631C48.4333 56.6631 48.7333 56.9631 49.0333 57.1631L61.6333 65.9631C62.8333 66.7631 64.4333 66.6631 65.4333 65.6631C66.4333 64.4631 66.5333 62.8631 65.7333 61.6631Z" fill="white"/>
</svg>
